<?xml version="1.0" encoding="utf-8"?><svg viewBox="0 0 135 74" xmlns="http://www.w3.org/2000/svg" xmlns:xlink="http://www.w3.org/1999/xlink"><style>:root>svg{display:none}:root>svg:target{display:block}</style><svg viewBox="0 0 135 40" id="sprite--apple_download" xmlns="http://www.w3.org/2000/svg"><path d="M30.128 19.784c-.029-3.223 2.639-4.791 2.761-4.864-1.511-2.203-3.853-2.504-4.676-2.528-1.967-.207-3.875 1.177-4.877 1.177-1.022 0-2.565-1.157-4.228-1.123-2.14.033-4.142 1.272-5.24 3.196-2.266 3.923-.576 9.688 1.595 12.859 1.086 1.553 2.355 3.287 4.016 3.226 1.625-.067 2.232-1.036 4.193-1.036 1.943 0 2.513 1.036 4.207.997 1.744-.028 2.842-1.56 3.89-3.127 1.255-1.78 1.759-3.533 1.779-3.623-.041-.014-3.387-1.291-3.42-5.154zm-3.2-9.478c.874-1.093 1.472-2.58 1.306-4.089-1.265.056-2.847.875-3.758 1.944-.806.942-1.526 2.486-1.34 3.938 1.421.106 2.88-.717 3.792-1.793zM53.645 31.504h-2.271l-1.244-3.909h-4.324l-1.185 3.909H42.41l4.284-13.308h2.646l4.305 13.308zm-3.89-5.549L48.63 22.48c-.119-.355-.342-1.191-.671-2.507h-.04a96.75 96.75 0 01-.632 2.507l-1.105 3.475h3.573zm14.907.633c0 1.632-.441 2.922-1.323 3.869-.79.843-1.771 1.264-2.942 1.264-1.264 0-2.172-.454-2.725-1.362h-.04v5.055H55.5V25.067c0-1.026-.027-2.079-.079-3.159h1.875l.119 1.521h.04c.711-1.146 1.79-1.718 3.238-1.718 1.132 0 2.077.447 2.833 1.342.758.896 1.136 2.074 1.136 3.535zm-2.172.078c0-.934-.21-1.704-.632-2.31-.461-.632-1.08-.948-1.856-.948-.526 0-1.004.176-1.431.523-.428.35-.708.807-.839 1.373-.066.264-.099.48-.099.65v1.6c0 .698.214 1.287.642 1.768s.984.721 1.668.721c.803 0 1.428-.31 1.875-.928.448-.619.672-1.435.672-2.449zm13.209-.078c0 1.632-.441 2.922-1.324 3.869-.789.843-1.77 1.264-2.941 1.264-1.264 0-2.172-.454-2.724-1.362h-.04v5.055h-2.132V25.067c0-1.026-.027-2.079-.079-3.159h1.875l.119 1.521h.04c.71-1.146 1.789-1.718 3.238-1.718 1.131 0 2.076.447 2.834 1.342.755.896 1.134 2.074 1.134 3.535zm-2.172.078c0-.934-.211-1.704-.633-2.31-.461-.632-1.078-.948-1.855-.948a2.22 2.22 0 00-1.432.523c-.428.35-.707.807-.838 1.373-.065.264-.099.48-.099.65v1.6c0 .698.214 1.287.64 1.768.428.48.984.721 1.67.721.803 0 1.428-.31 1.875-.928.448-.619.672-1.435.672-2.449zm14.512 1.106c0 1.132-.393 2.053-1.182 2.764-.867.777-2.074 1.165-3.625 1.165-1.432 0-2.58-.276-3.449-.829l.494-1.777c.936.566 1.963.85 3.082.85.803 0 1.428-.182 1.877-.544.447-.362.67-.848.67-1.454 0-.54-.184-.995-.553-1.364-.367-.369-.98-.712-1.836-1.029-2.33-.869-3.494-2.142-3.494-3.816 0-1.094.408-1.991 1.225-2.689.814-.699 1.9-1.048 3.258-1.048 1.211 0 2.217.211 3.02.632l-.533 1.738c-.75-.408-1.598-.612-2.547-.612-.75 0-1.336.185-1.756.553a1.58 1.58 0 00-.533 1.205c0 .526.203.961.611 1.303.355.316 1 .658 1.936 1.027 1.145.461 1.986 1 2.527 1.618.539.616.808 1.387.808 2.307zm7.049-4.264h-2.35v4.659c0 1.185.414 1.777 1.244 1.777.381 0 .697-.033.947-.099l.059 1.619c-.42.157-.973.236-1.658.236-.842 0-1.5-.257-1.975-.77-.473-.514-.711-1.376-.711-2.587v-4.837h-1.4v-1.6h1.4v-1.757l2.094-.632v2.389h2.35v1.602zm10.603 3.119c0 1.475-.422 2.686-1.264 3.633-.883.975-2.055 1.461-3.516 1.461-1.408 0-2.529-.467-3.365-1.401s-1.254-2.113-1.254-3.534c0-1.487.43-2.705 1.293-3.652.861-.948 2.023-1.422 3.484-1.422 1.408 0 2.541.467 3.396 1.402.818.907 1.226 2.078 1.226 3.513zm-2.212.069c0-.885-.189-1.644-.572-2.277-.447-.766-1.086-1.148-1.914-1.148-.857 0-1.508.383-1.955 1.148-.383.634-.572 1.405-.572 2.317 0 .885.189 1.644.572 2.276.461.766 1.105 1.148 1.936 1.148.814 0 1.453-.39 1.914-1.168.393-.645.591-1.412.591-2.296zm9.142-2.913a3.702 3.702 0 00-.672-.059c-.75 0-1.33.283-1.738.85-.355.5-.533 1.132-.533 1.895v5.035h-2.131l.02-6.574c0-1.106-.027-2.113-.08-3.021h1.857l.078 1.836h.059c.225-.631.58-1.139 1.066-1.52a2.578 2.578 0 011.541-.514c.197 0 .375.014.533.039v2.033zm9.535 2.469a5 5 0 01-.078.967h-6.396c.025.948.334 1.673.928 2.173.539.447 1.236.671 2.092.671.947 0 1.811-.151 2.588-.454l.334 1.48c-.908.396-1.98.593-3.217.593-1.488 0-2.656-.438-3.506-1.313-.848-.875-1.273-2.05-1.273-3.524 0-1.447.395-2.652 1.186-3.613.828-1.026 1.947-1.539 3.355-1.539 1.383 0 2.43.513 3.141 1.539.563.815.846 1.823.846 3.02zm-2.033-.553c.014-.632-.125-1.178-.414-1.639-.369-.593-.936-.889-1.699-.889-.697 0-1.264.289-1.697.869-.355.461-.566 1.014-.631 1.658h4.441zM49.05 10.009c0 1.177-.353 2.063-1.058 2.658-.653.549-1.581.824-2.783.824-.596 0-1.106-.026-1.533-.078V6.982c.557-.09 1.157-.136 1.805-.136 1.145 0 2.008.249 2.59.747.652.563.979 1.368.979 2.416zm-1.105.029c0-.763-.202-1.348-.606-1.756-.404-.407-.994-.611-1.771-.611-.33 0-.611.022-.844.068v4.889c.129.02.365.029.708.029.802 0 1.421-.223 1.857-.669s.656-1.096.656-1.95zm6.964.999c0 .725-.207 1.319-.621 1.785-.434.479-1.009.718-1.727.718-.692 0-1.243-.229-1.654-.689-.41-.459-.615-1.038-.615-1.736 0-.73.211-1.329.635-1.794s.994-.698 1.712-.698c.692 0 1.248.229 1.669.688.4.446.601 1.022.601 1.726zm-1.087.034c0-.435-.094-.808-.281-1.119-.22-.376-.533-.564-.94-.564-.421 0-.741.188-.961.564-.188.311-.281.69-.281 1.138 0 .435.094.808.281 1.119.227.376.543.564.951.564.4 0 .714-.191.94-.574.194-.317.291-.693.291-1.128zm8.943-2.352l-1.475 4.714h-.96l-.611-2.047a15.32 15.32 0 01-.379-1.523h-.019a11.15 11.15 0 01-.379 1.523l-.649 2.047h-.971l-1.387-4.714h1.077l.533 2.241c.129.53.235 1.035.32 1.513h.019c.078-.394.207-.896.389-1.503l.669-2.25h.854l.641 2.202c.155.537.281 1.054.378 1.552h.029c.071-.485.178-1.002.32-1.552l.572-2.202h1.029zm5.433 4.714H67.15v-2.7c0-.832-.316-1.248-.95-1.248a.946.946 0 00-.757.343 1.217 1.217 0 00-.291.808v2.796h-1.048v-3.366c0-.414-.013-.863-.038-1.349h.921l.049.737h.029c.122-.229.304-.418.543-.569.284-.176.602-.265.95-.265.44 0 .806.142 1.097.427.362.349.543.87.543 1.562v2.824zm2.89 0h-1.047V6.556h1.047v6.877zm6.17-2.396c0 .725-.207 1.319-.621 1.785-.434.479-1.01.718-1.727.718-.693 0-1.244-.229-1.654-.689-.41-.459-.615-1.038-.615-1.736 0-.73.211-1.329.635-1.794s.994-.698 1.711-.698c.693 0 1.248.229 1.67.688.4.446.601 1.022.601 1.726zm-1.088.034c0-.435-.094-.808-.281-1.119-.219-.376-.533-.564-.939-.564-.422 0-.742.188-.961.564-.188.311-.281.69-.281 1.138 0 .435.094.808.281 1.119.227.376.543.564.951.564.4 0 .713-.191.939-.574.195-.317.291-.693.291-1.128zm6.16 2.362h-.941l-.078-.543h-.029c-.322.433-.781.65-1.377.65-.445 0-.805-.143-1.076-.427a1.339 1.339 0 01-.369-.96c0-.576.24-1.015.723-1.319.482-.304 1.16-.453 2.033-.446V10.3c0-.621-.326-.931-.979-.931-.465 0-.875.117-1.229.349l-.213-.688c.438-.271.979-.407 1.617-.407 1.232 0 1.85.65 1.85 1.95v1.736c0 .471.023.846.068 1.124zm-1.088-1.62v-.727c-1.156-.02-1.734.297-1.734.95 0 .246.066.43.201.553a.733.733 0 00.512.184c.23 0 .445-.073.641-.218a.893.893 0 00.38-.742zm7.043 1.62h-.93l-.049-.757h-.029c-.297.576-.803.864-1.514.864-.568 0-1.041-.223-1.416-.669s-.562-1.025-.562-1.736c0-.763.203-1.381.611-1.853.395-.44.879-.66 1.455-.66.633 0 1.076.213 1.328.64h.02V6.556h1.049v5.607c0 .459.012.882.037 1.27zm-1.086-1.988v-.786a1.194 1.194 0 00-.408-.965 1.03 1.03 0 00-.701-.257c-.391 0-.697.155-.922.466-.223.311-.336.708-.336 1.193 0 .466.107.844.322 1.135.227.31.533.465.916.465.344 0 .619-.129.828-.388.202-.239.301-.527.301-.863zm10.049-.408c0 .725-.207 1.319-.621 1.785-.434.479-1.008.718-1.727.718-.691 0-1.242-.229-1.654-.689-.41-.459-.615-1.038-.615-1.736 0-.73.211-1.329.635-1.794s.994-.698 1.713-.698c.691 0 1.248.229 1.668.688.4.446.601 1.022.601 1.726zm-1.086.034c0-.435-.094-.808-.281-1.119-.221-.376-.533-.564-.941-.564-.42 0-.74.188-.961.564-.188.311-.281.69-.281 1.138 0 .435.094.808.281 1.119.227.376.543.564.951.564.4 0 .715-.191.941-.574.193-.317.291-.693.291-1.128zm6.721 2.362h-1.047v-2.7c0-.832-.316-1.248-.951-1.248-.311 0-.562.114-.756.343s-.291.499-.291.808v2.796h-1.049v-3.366c0-.414-.012-.863-.037-1.349h.92l.049.737h.029a1.53 1.53 0 01.543-.569c.285-.176.602-.265.951-.265.439 0 .805.142 1.096.427.363.349.543.87.543 1.562v2.824zm7.053-3.929h-1.154v2.29c0 .582.205.873.611.873.188 0 .344-.016.467-.049l.027.795c-.207.078-.479.117-.814.117-.414 0-.736-.126-.969-.378-.234-.252-.35-.676-.35-1.271V9.504h-.689v-.785h.689v-.864l1.027-.31v1.173h1.154v.786zm5.548 3.929h-1.049v-2.68c0-.845-.316-1.268-.949-1.268-.486 0-.818.245-1 .735a1.317 1.317 0 00-.049.377v2.835h-1.047V6.556h1.047v2.841h.02c.33-.517.803-.775 1.416-.775.434 0 .793.142 1.078.427.355.355.533.883.533 1.581v2.803zm5.723-2.58c0 .188-.014.346-.039.475h-3.143c.014.466.164.821.455 1.067.266.22.609.33 1.029.33.465 0 .889-.074 1.271-.223l.164.728c-.447.194-.973.291-1.582.291-.73 0-1.305-.215-1.721-.645-.418-.43-.625-1.007-.625-1.731 0-.711.193-1.303.582-1.775.406-.504.955-.756 1.648-.756.678 0 1.193.252 1.541.756.281.4.42.895.42 1.483zm-1-.271a1.411 1.411 0 00-.203-.805c-.182-.291-.459-.437-.834-.437a.995.995 0 00-.834.427 1.586 1.586 0 00-.311.815h2.182z" fill="#FFF"/></svg><svg fill="none" viewBox="0 0 81 70" id="sprite--arrow" xmlns="http://www.w3.org/2000/svg"><path d="M.632 4.084a.5.5 0 01.06-.705L4.132.477a.5.5 0 11.644.764L1.72 3.821 4.3 6.878a.5.5 0 11-.765.645L.632 4.083zm78.888 65.24c-1.49-10.669-6.456-25.691-18.374-38.663C49.238 17.7 30.358 6.75.972 4.26l.085-.996c29.614 2.51 48.734 13.56 60.826 26.722 12.082 13.151 17.116 28.376 18.627 39.2l-.99.139z" fill="#fff"/></svg><svg viewBox="0 0 135 40" id="sprite--google_download" xmlns="http://www.w3.org/2000/svg"><path d="M47.4 10.2c0 .8-.2 1.5-.7 2-.6.6-1.3.9-2.2.9-.9 0-1.6-.3-2.2-.9-.6-.6-.9-1.3-.9-2.2 0-.9.3-1.6.9-2.2.6-.6 1.3-.9 2.2-.9.4 0 .8.1 1.2.3.4.2.7.4.9.7l-.5.5c-.4-.5-.9-.7-1.6-.7-.6 0-1.2.2-1.6.7-.5.4-.7 1-.7 1.7s.2 1.3.7 1.7c.5.4 1 .7 1.6.7.7 0 1.2-.2 1.7-.7.3-.3.5-.7.5-1.2h-2.2v-.8h2.9v.4zM52 7.7h-2.7v1.9h2.5v.7h-2.5v1.9H52v.8h-3.5V7H52v.7zm3.3 5.3h-.8V7.7h-1.7V7H57v.7h-1.7V13zm4.6 0V7h.8v6h-.8zm4.2 0h-.8V7.7h-1.7V7h4.1v.7H64V13zm9.5-.8c-.6.6-1.3.9-2.2.9-.9 0-1.6-.3-2.2-.9-.6-.6-.9-1.3-.9-2.2s.3-1.6.9-2.2c.6-.6 1.3-.9 2.2-.9.9 0 1.6.3 2.2.9.6.6.9 1.3.9 2.2 0 .9-.3 1.6-.9 2.2zm-3.8-.5c.4.4 1 .7 1.6.7.6 0 1.2-.2 1.6-.7.4-.4.7-1 .7-1.7s-.2-1.3-.7-1.7c-.4-.4-1-.7-1.6-.7-.6 0-1.2.2-1.6.7-.4.4-.7 1-.7 1.7s.2 1.3.7 1.7zm5.8 1.3V7h.9l2.9 4.7V7h.8v6h-.8l-3.1-4.9V13h-.7z" fill="#fff" stroke="#fff" stroke-width=".2" stroke-miterlimit="10"/><path d="M68.1 21.8c-2.4 0-4.3 1.8-4.3 4.3 0 2.4 1.9 4.3 4.3 4.3s4.3-1.8 4.3-4.3c0-2.6-1.9-4.3-4.3-4.3zm0 6.8c-1.3 0-2.4-1.1-2.4-2.6s1.1-2.6 2.4-2.6c1.3 0 2.4 1 2.4 2.6 0 1.5-1.1 2.6-2.4 2.6zm-9.3-6.8c-2.4 0-4.3 1.8-4.3 4.3 0 2.4 1.9 4.3 4.3 4.3s4.3-1.8 4.3-4.3c0-2.6-1.9-4.3-4.3-4.3zm0 6.8c-1.3 0-2.4-1.1-2.4-2.6s1.1-2.6 2.4-2.6c1.3 0 2.4 1 2.4 2.6 0 1.5-1.1 2.6-2.4 2.6zm-11.1-5.5v1.8H52c-.1 1-.5 1.8-1 2.3-.6.6-1.6 1.3-3.3 1.3-2.7 0-4.7-2.1-4.7-4.8s2.1-4.8 4.7-4.8c1.4 0 2.5.6 3.3 1.3l1.3-1.3c-1.1-1-2.5-1.8-4.5-1.8-3.6 0-6.7 3-6.7 6.6 0 3.6 3.1 6.6 6.7 6.6 2 0 3.4-.6 4.6-1.9 1.2-1.2 1.6-2.9 1.6-4.2 0-.4 0-.8-.1-1.1h-6.2zm45.4 1.4c-.4-1-1.4-2.7-3.6-2.7s-4 1.7-4 4.3c0 2.4 1.8 4.3 4.2 4.3 1.9 0 3.1-1.2 3.5-1.9l-1.4-1c-.5.7-1.1 1.2-2.1 1.2s-1.6-.4-2.1-1.3l5.7-2.4-.2-.5zm-5.8 1.4c0-1.6 1.3-2.5 2.2-2.5.7 0 1.4.4 1.6.9l-3.8 1.6zM82.6 30h1.9V17.5h-1.9V30zm-3-7.3c-.5-.5-1.3-1-2.3-1-2.1 0-4.1 1.9-4.1 4.3s1.9 4.2 4.1 4.2c1 0 1.8-.5 2.2-1h.1v.6c0 1.6-.9 2.5-2.3 2.5-1.1 0-1.9-.8-2.1-1.5l-1.6.7c.5 1.1 1.7 2.5 3.8 2.5 2.2 0 4-1.3 4-4.4V22h-1.8v.7zm-2.2 5.9c-1.3 0-2.4-1.1-2.4-2.6s1.1-2.6 2.4-2.6c1.3 0 2.3 1.1 2.3 2.6s-1 2.6-2.3 2.6zm24.4-11.1h-4.5V30h1.9v-4.7h2.6c2.1 0 4.1-1.5 4.1-3.9s-2-3.9-4.1-3.9zm.1 6h-2.7v-4.3h2.7c1.4 0 2.2 1.2 2.2 2.1-.1 1.1-.9 2.2-2.2 2.2zm11.5-1.8c-1.4 0-2.8.6-3.3 1.9l1.7.7c.4-.7 1-.9 1.7-.9 1 0 1.9.6 2 1.6v.1c-.3-.2-1.1-.5-1.9-.5-1.8 0-3.6 1-3.6 2.8 0 1.7 1.5 2.8 3.1 2.8 1.3 0 1.9-.6 2.4-1.2h.1v1h1.8v-4.8c-.2-2.2-1.9-3.5-4-3.5zm-.2 6.9c-.6 0-1.5-.3-1.5-1.1 0-1 1.1-1.3 2-1.3.8 0 1.2.2 1.7.4-.2 1.2-1.2 2-2.2 2zm10.5-6.6l-2.1 5.4h-.1l-2.2-5.4h-2l3.3 7.6-1.9 4.2h1.9l5.1-11.8h-2zm-16.8 8h1.9V17.5h-1.9V30z" fill="#fff"/><linearGradient id="ca" gradientUnits="userSpaceOnUse" x1="21.8" y1="33.29" x2="5.017" y2="16.508" gradientTransform="matrix(1 0 0 -1 0 42)"><stop offset="0" stop-color="#00a0ff"/><stop offset=".007" stop-color="#00a1ff"/><stop offset=".26" stop-color="#00beff"/><stop offset=".512" stop-color="#00d2ff"/><stop offset=".76" stop-color="#00dfff"/><stop offset="1" stop-color="#00e3ff"/></linearGradient><path d="M10.4 7.5c-.3.3-.4.8-.4 1.4V31c0 .6.2 1.1.5 1.4l.1.1L23 20.1v-.2L10.4 7.5z" fill="url(#ca)"/><linearGradient id="cb" gradientUnits="userSpaceOnUse" x1="33.834" y1="21.999" x2="9.637" y2="21.999" gradientTransform="matrix(1 0 0 -1 0 42)"><stop offset="0" stop-color="#ffe000"/><stop offset=".409" stop-color="#ffbd00"/><stop offset=".775" stop-color="orange"/><stop offset="1" stop-color="#ff9c00"/></linearGradient><path d="M27 24.3l-4.1-4.1v-.3l4.1-4.1.1.1 4.9 2.8c1.4.8 1.4 2.1 0 2.9l-5 2.7z" fill="url(#cb)"/><linearGradient id="cc" gradientUnits="userSpaceOnUse" x1="24.827" y1="19.704" x2="2.069" y2="-3.054" gradientTransform="matrix(1 0 0 -1 0 42)"><stop offset="0" stop-color="#ff3a44"/><stop offset="1" stop-color="#c31162"/></linearGradient><path d="M27.1 24.2L22.9 20 10.4 32.5c.5.5 1.2.5 2.1.1l14.6-8.4" fill="url(#cc)"/><linearGradient id="cd" gradientUnits="userSpaceOnUse" x1="7.297" y1="41.824" x2="17.46" y2="31.661" gradientTransform="matrix(1 0 0 -1 0 42)"><stop offset="0" stop-color="#32a071"/><stop offset=".069" stop-color="#2da771"/><stop offset=".476" stop-color="#15cf74"/><stop offset=".801" stop-color="#06e775"/><stop offset="1" stop-color="#00f076"/></linearGradient><path d="M27.1 15.8L12.5 7.5c-.9-.5-1.6-.4-2.1.1L22.9 20l4.2-4.2z" fill="url(#cd)"/><path d="M27 24.1l-14.5 8.2c-.8.5-1.5.4-2 0l-.1.1.1.1c.5.4 1.2.5 2 0L27 24.1z" opacity=".2"/><path d="M10.4 32.3c-.3-.3-.4-.8-.4-1.4v.1c0 .6.2 1.1.5 1.4v-.1h-.1zm21.6-11l-5 2.8.1.1 4.9-2.8c.7-.4 1-.9 1-1.4 0 .5-.4.9-1 1.3z" opacity=".12"/><path d="M12.5 7.6L32 18.7c.6.4 1 .8 1 1.3 0-.5-.3-1-1-1.4L12.5 7.5c-1.4-.8-2.5-.2-2.5 1.4V9c0-1.5 1.1-2.2 2.5-1.4z" opacity=".25" fill="#fff"/></svg><svg fill="none" viewBox="0 0 134 74" id="sprite--text" xmlns="http://www.w3.org/2000/svg"><path d="M28.91 20.526c.115.5-.257 2.16-1.115 4.984-.172.565-1.103 3.48-2.793 8.746-1.225 3.845-2.046 6.585-2.461 8.219-.49 1.801-.945 4.007-1.363 6.617l-1.54 10.037c-.253 1.034-.632 1.927-1.136 2.68-.476.71-1 1.129-1.57 1.26-.464.105-.914-.055-1.35-.482-.399-.434-.724-1.205-.977-2.31-.927-4.069-1.523-8.494-1.788-13.276a700.55 700.55 0 01-.562-14.569c-1.987 5.446-3.664 10.52-5.032 15.225-1.425 4.942-2.385 9.047-2.88 12.313-.16 1.275-.323 2.532-.49 3.772-.355 2.07-.978 3.207-1.87 3.41-.667.04-1.09-.333-1.268-1.118-.285-1.25-.05-3.593.705-7.03l.908-3.924c1.067-4.373 2.63-9.535 4.69-15.485 2.154-6.197 3.894-10.498 5.223-12.903.711-1.326 1.406-2.067 2.084-2.221.75-.171 1.214.136 1.393.921.073.321.066.623-.02.905-.746 3.474-.856 8.755-.329 15.842.446 5.905 1.059 10.57 1.84 13.996.17-.902.593-2.913 1.27-6.033.578-2.572.998-4.6 1.26-6.087a280.899 280.899 0 011.523-6.654 194.237 194.237 0 011.854-7.18 164.872 164.872 0 012.183-6.973c.71-2.152 1.548-3.338 2.511-3.557.563-.166.93.125 1.1.875zm8.976 7.92c.195.857-.047 1.85-.728 2.982-.653 1.087-1.3 1.704-1.943 1.85-.75.171-1.226-.19-1.43-1.081-.186-.821.043-1.793.687-2.916.645-1.123 1.289-1.758 1.931-1.904.785-.18 1.28.177 1.483 1.07zm-3.219 11.32c.122.536.016 1.142-.317 1.818-.703 1.362-1.452 3.841-2.246 7.438-.802 3.562-1.172 5.974-1.11 7.236.063 1.262-.289 1.943-1.054 2.042-.286.065-.58-.074-.884-.418a2.707 2.707 0 01-.614-1.211c-.407-1.784-.147-4.434.778-7.948a49.495 49.495 0 013.026-8.46 5.59 5.59 0 01.496-.79 1.53 1.53 0 01.837-.528c.587-.06.95.215 1.088.821zm18.328 1.452c.285 1.25-.25 3.267-1.604 6.054-1.586 3.252-3.699 6.005-6.338 8.258-.612 2.917-1.227 5.404-1.847 7.46-.897 2.982-1.823 5.258-2.78 6.828-1.23 2.007-2.632 3.19-4.202 3.548-1.748.399-2.879-.526-3.391-2.774-.415-1.82.237-4.146 1.956-6.978 1.72-2.832 4.223-5.6 7.511-8.3.376-.987.622-1.72.738-2.196.194-.795.23-1.46.108-1.996-.59 1.036-1.21 1.853-1.862 2.452-.66.563-1.329.922-2.007 1.077-1.427.325-2.336-.368-2.727-2.081-.512-2.248.178-5.56 2.072-9.932 2.023-4.629 4.212-7.211 6.567-7.748.856-.196 1.595-.083 2.217.339.622.421 1.022 1.024 1.201 1.81a4.24 4.24 0 01.074 1.56c-.045.46-.207.985-.485 1.574.606-.138.91-.039.912.299a237.148 237.148 0 00-1.97 5.686c-.671 1.992-.96 3.691-.864 5.096a26.854 26.854 0 003.66-5.677 448.923 448.923 0 002.355-4.986c.357-.081.592.128.706.627zm-7.183-2.36c-.13-.57-.48-.791-1.051-.66-1 .227-2.283 1.927-3.85 5.1-1.668 3.383-2.315 5.896-1.94 7.538.187.82.601 1.157 1.244 1.01.642-.145 1.284-.705 1.926-1.677.76-1.112 1.515-2.823 2.264-5.134-.63.032-.967-.042-1.008-.22.425-.773.873-1.607 1.345-2.503.498-.94.843-1.9 1.032-2.882l.038-.572zm-3.986 20.055c-1.25.284-2.718 1.745-4.407 4.383-1.716 2.681-2.431 4.646-2.147 5.895.065.285.247.507.546.664.298.157.608.2.93.126.963-.22 1.902-1.616 2.817-4.19a927.45 927.45 0 012.26-6.878zm28.046-21.036c.333 1.463-.173 3.606-1.52 6.428-1.502 3.12-3.218 4.9-5.145 5.34-.642.147-1.172.042-1.591-.313-.392-.398-.673-.973-.843-1.722-.285-1.249-.225-2.877.181-4.884.406-2.007 1.053-4.107 1.943-6.3-3.372 4.148-5.455 8.677-6.25 13.589-.292 1.68-.813 2.606-1.563 2.777-.785.18-1.287-.213-1.507-1.176-.187-.821.013-2.744.6-5.768a97.168 97.168 0 011.577-6.666c1.53-5.305 3.015-11.556 4.452-18.753.664-3.342 1.532-5.136 2.602-5.38.964-.22 1.556.152 1.775 1.116.147.642-.26 2.48-1.22 5.515a954.336 954.336 0 01-2.826 9.09c-1.143 3.715-1.815 6.365-2.017 7.95 1.295-2.06 2.59-3.706 3.886-4.94 1.078-1.034 2.01-1.641 2.794-1.82.857-.195 1.366.064 1.529.778.049.214.033.555-.048 1.024a2297.06 2297.06 0 00-2.293 6.492c-.898 2.645-1.266 4.324-1.103 5.038.114.5.403.696.866.59.75-.17 1.368-.668 1.856-1.493.055-.087.695-1.81 1.919-5.167.439-1.039.908-1.615 1.408-1.729.285-.065.465.063.538.384zm15.756-14.629c.363.93-.252 1.69-1.845 2.279-2.766 1.043-4.603 1.875-5.513 2.496-1.121 3.972-1.898 7.396-2.331 10.273-.368 2.336-.438 4.004-.21 5.003.178.785.571 1.108 1.178.97.714-.163 1.507-.963 2.38-2.4a16.297 16.297 0 001.951-4.782c.14-.707.423-1.11.851-1.207.555-.202.913.054 1.076.768.342 1.499-.242 3.547-1.753 6.143-1.482 2.553-3.044 4.017-4.686 4.391-.892.203-1.736.04-2.533-.492-.797-.532-1.326-1.368-1.586-2.51-.39-1.713-.283-4.121.323-7.225a53.091 53.091 0 011.833-6.781c-.684.456-1.223.73-1.615.819-.821.187-1.33-.148-1.524-1.004-.155-.678.239-1.256 1.181-1.734a435.09 435.09 0 012.987-1.47c1.126-3.297 2.02-5.547 2.684-6.75.657-1.237 1.342-1.938 2.055-2.1.52-.194.86.066 1.023.78.13.57-.061 1.46-.575 2.665-.756 1.787-1.187 2.86-1.292 3.223.807-.41 1.552-.767 2.233-1.073a10.406 10.406 0 011.931-.665c1.071-.244 1.663-.117 1.777.383zm15.338-16.392c.635 2.783-.47 7.24-3.314 13.369-2.566 5.54-5.448 10.27-8.646 14.19-.572 2.759-.761 4.566-.566 5.423.147.642.38.926.702.853.606-.138 1.352-.984 2.237-2.537.912-1.597 1.42-2.99 1.525-4.177.158-.787.47-1.233.934-1.339.25-.057.488.001.715.175.255.13.423.373.504.73.293 1.284-.414 3.285-2.122 6.002-1.708 2.717-3.151 4.21-4.329 4.478-1.32.301-2.18-.423-2.578-2.171-.106-.464-.151-1.073-.135-1.828.404-6.624 1.776-13.45 4.115-20.477 2.187-6.543 4.43-11.034 6.726-13.472.707-.687 1.328-1.091 1.863-1.213.571-.13 1.07 0 1.497.39.419.356.71.89.872 1.604zM98.6 8.578c-.114-.5-.367-.705-.76-.615-.892.203-2.287 2.811-4.185 7.824-1.906 4.977-3.014 9.171-3.325 12.583 2.138-2.477 4.153-6.071 6.045-10.782 1.825-4.508 2.567-7.511 2.225-9.01zm7.972 4.207c.195.857-.047 1.85-.728 2.982-.653 1.087-1.301 1.704-1.943 1.85-.749.171-1.226-.19-1.429-1.081-.187-.821.042-1.793.687-2.916.644-1.123 1.288-1.758 1.93-1.904.785-.18 1.28.177 1.483 1.07zm-3.219 11.32c.122.536.016 1.142-.317 1.819-.703 1.361-1.452 3.84-2.246 7.438-.802 3.561-1.172 5.973-1.11 7.235.063 1.262-.289 1.943-1.054 2.042-.286.066-.58-.074-.884-.418a2.707 2.707 0 01-.614-1.211c-.407-1.784-.147-4.434.778-7.948a49.515 49.515 0 013.026-8.46c.13-.256.295-.519.496-.79a1.53 1.53 0 01.837-.528c.587-.06.95.215 1.088.822zm15.559-22.298c.122.535-.065 1.197-.561 1.986-1.212 1.928-2.518 4.76-3.919 8.495-1.4 3.736-2.503 7.215-3.307 10.44.83-.64 1.623-1.196 2.379-1.669 1.187-.721 2.262-1.192 3.226-1.411.82-.187 1.561-.15 2.222.113.696.254 1.145.658 1.346 1.213.073.321-.085.695-.476 1.122-.355.419-.729.673-1.121.762-.143.033-.634-.061-1.473-.283a2.6 2.6 0 00-1.304-.04c-.678.154-1.71.652-3.094 1.493-1.393.806-2.401 1.655-3.023 2.548 1.382.135 2.543.865 3.483 2.19.777 1.1 1.352 2.47 1.726 4.111 1.603 7.03 1.416 12.797-.56 17.302-1.509 3.423-3.442 5.402-5.797 5.94-.856.195-1.69-.084-2.5-.838-.837-.71-1.407-1.725-1.708-3.046a17.733 17.733 0 01-.418-3.565c-.019-1.234.035-2.56.163-3.978.239-2.57.782-6.035 1.628-10.395.347-1.768.522-2.897.523-3.385a2.318 2.318 0 01-.523.176c-.571.13-.901-.001-.991-.394-.106-.464.105-1.187.631-2.17.527-.984 1.277-2.056 2.251-3.217a438.77 438.77 0 012.144-7.64 148.41 148.41 0 012.576-7.964c.942-2.618 1.84-4.774 2.692-6.47.306-.633.68-1.131 1.123-1.495.434-.4.866-.648 1.294-.745.749-.171 1.205.1 1.368.814zm-6.207 32.048c-.301-1.32-.714-2.39-1.238-3.21-.525-.818-1.169-1.253-1.931-1.305-.555 2.342-1.217 6.19-1.985 11.546-.733 5.347-.989 8.503-.77 9.466.179.786.456 1.342.831 1.67.383.362.753.503 1.11.422 1.463-.334 2.703-2.306 3.719-5.916 1.169-4.095 1.257-8.32.264-12.673z" fill="#fff"/><path d="M133.597 25.318c.284 1.25-.636 3.223-2.761 5.923-2.27 2.883-4.512 4.576-6.724 5.08-1.107.253-2.182.066-3.225-.56-1.016-.669-1.663-1.61-1.939-2.823-.35-1.535-.269-3.318.244-5.349.427-1.75 1.031-3.22 1.81-4.41 1.086-1.825 2.095-3.162 3.027-4.013.924-.886 1.743-1.411 2.457-1.574.678-.154 1.28-.066 1.805.264.526.33.858.8.997 1.406.26 1.142-.033 2.654-.88 4.537a18.406 18.406 0 01-2.361 3.973c-.413.657-1.062 1.35-1.947 2.077-.633.52-1.344 1.02-2.136 1.5.195.857.52 1.458.975 1.805.482.303 1.062.377 1.74.223 1.106-.252 2.34-1.097 3.702-2.534a19.925 19.925 0 003.457-4.842c.416-.808.767-1.245 1.053-1.31.356-.081.592.128.706.627zm-6.644-3.947c-.098-.428-.369-.63-.813-.603-.571.13-1.16.677-1.766 1.642-.476.709-.989 1.67-1.538 2.884-.522 1.17-.893 2.175-1.115 3.014 1.178-.269 2.397-1.26 3.658-2.974 1.261-1.714 1.786-3.035 1.574-3.963z" fill="#fff"/></svg><svg fill="none" viewBox="0 0 26 25" id="sprite--user" xmlns="http://www.w3.org/2000/svg"><path d="M13.002 0C5.822 0 0 5.594 0 12.495 0 19.396 5.821 24.99 13.002 24.99a13.61 13.61 0 002.244-.188l.136-.023c6.602-1.185 11.18-7.006 10.562-13.433C25.327 4.92 19.718.002 13.002 0zm-1.045 24.113h-.03a12.456 12.456 0 01-1.004-.127l-.056-.009a12.51 12.51 0 01-.963-.206l-.077-.018c-.31-.081-.616-.175-.918-.28l-.094-.03a12.164 12.164 0 01-.873-.349l-.107-.046a11.13 11.13 0 01-.94-.476 11.988 11.988 0 01-.781-.478l-.116-.076c-.25-.17-.494-.352-.732-.542l-.065-.055V17.91c.003-2.53 2.135-4.579 4.767-4.582h6.067c2.632.003 4.765 2.053 4.768 4.582v3.512l-.058.046c-.242.194-.49.378-.746.552l-.102.067c-.258.172-.522.334-.792.486l-.102.055a11.9 11.9 0 01-1.816.812l-.087.03c-.303.104-.61.199-.922.28l-.075.018c-.318.08-.64.15-.964.206l-.056.009a12.54 12.54 0 01-1.004.127h-.03a12.629 12.629 0 01-2.092.003zm9.713-3.463v-2.74c-.004-2.99-2.524-5.411-5.635-5.415H9.968c-3.11.004-5.63 2.426-5.634 5.415v2.74C-.334 16.07-.282 8.73 4.45 4.212c4.732-4.517 12.371-4.517 17.103 0 4.732 4.517 4.784 11.858.117 16.436z" fill="#fff"/><path d="M13.002 3.332c-2.394 0-4.334 1.865-4.334 4.165s1.94 4.165 4.334 4.165c2.393 0 4.334-1.865 4.334-4.165-.003-2.3-1.942-4.163-4.334-4.165zm0 7.497c-1.915 0-3.467-1.492-3.467-3.332 0-1.84 1.552-3.332 3.467-3.332s3.467 1.492 3.467 3.332c-.002 1.84-1.554 3.33-3.467 3.332z" fill="#fff"/></svg></svg>